<?xml version="1.0" encoding="UTF-8" standalone="no"?>
<!DOCTYPE svg PUBLIC "-//W3C//DTD SVG 1.1//EN" "http://www.w3.org/Graphics/SVG/1.1/DTD/svg11.dtd">
<svg width="100%" height="100%" viewBox="0 0 361 69" version="1.1" xmlns="http://www.w3.org/2000/svg" xmlns:xlink="http://www.w3.org/1999/xlink" xml:space="preserve" xmlns:serif="http://www.serif.com/" style="fill-rule:evenodd;clip-rule:evenodd;stroke-linejoin:round;stroke-miterlimit:2;">
    <g transform="matrix(0.873744,0,0,0.836296,19.495,9.34187)">
        <rect x="-22.312" y="-11.171" width="413.165" height="81.945" style="fill:url(#_Linear1);"/>
    </g>
    <g transform="matrix(1.15726,0,0,1.14214,-67.5685,-13.0463)">
        <g transform="matrix(1,0,0,1,2.18854,13.3347)">
            <circle cx="318.973" cy="28.089" r="23.051" style="fill:url(#_Linear2);"/>
            <clipPath id="_clip3">
                <circle cx="318.973" cy="28.089" r="23.051"/>
            </clipPath>
            <g clip-path="url(#_clip3)">
                <g transform="matrix(1.00374,0.0633018,-0.0614156,0.973834,-0.582814,-21.309)">
                    <path d="M321.161,45.629L333.417,59.15L349.703,35.846L330.749,27.605L326.559,28.8L324.415,36.394L322.38,41.169L321.161,45.629" style="fill:rgb(178,61,13);"/>
                </g>
                <g transform="matrix(1.05525,0,0,1,-19.6404,5.05052)">
                    <path d="M313.75,25.455C312.367,23.599 311.547,21.297 311.547,18.806C311.547,12.656 316.54,7.663 322.691,7.663C328.841,7.663 333.834,12.656 333.834,18.806C333.834,21.171 333.096,23.364 331.837,25.17L322.695,38.414L313.75,25.455Z" style="fill:rgb(178,61,13);"/>
                </g>
            </g>
        </g>
        <g transform="matrix(1,0,0,1,-1.52908,18.3853)">
            <path d="M313.75,25.455C312.367,23.599 311.547,21.297 311.547,18.806C311.547,12.656 316.54,7.663 322.691,7.663C328.841,7.663 333.834,12.656 333.834,18.806C333.834,21.171 333.096,23.364 331.837,25.17L322.695,38.414L313.75,25.455Z" style="fill:rgb(243,243,234);"/>
        </g>
        <g transform="matrix(1.29691,0,0,1.29691,-98.5364,-3.38924)">
            <path d="M324.094,26.625C323.774,26.594 323.452,26.594 323.132,26.625L322.973,27.397C322.667,27.443 322.366,27.524 322.077,27.637L321.554,27.048C321.261,27.181 320.982,27.342 320.72,27.529L320.969,28.276C320.727,28.47 320.507,28.691 320.313,28.933L319.565,28.684C319.378,28.946 319.217,29.225 319.084,29.518L319.673,30.041C319.56,30.33 319.48,30.63 319.433,30.937L318.661,31.096C318.63,31.416 318.63,31.738 318.661,32.058L319.433,32.216C319.48,32.523 319.56,32.824 319.673,33.113L319.084,33.636C319.217,33.929 319.378,34.208 319.565,34.469L320.313,34.221C320.507,34.463 320.727,34.683 320.969,34.877L320.72,35.625C320.982,35.812 321.261,35.973 321.554,36.106L322.077,35.517C322.366,35.63 322.667,35.71 322.973,35.757L323.132,36.529C323.452,36.56 323.774,36.56 324.094,36.529L324.253,35.757C324.559,35.71 324.86,35.63 325.149,35.517L325.672,36.106C325.965,35.973 326.244,35.812 326.506,35.625L326.257,34.877C326.499,34.683 326.719,34.463 326.913,34.221L327.661,34.469C327.848,34.208 328.009,33.929 328.142,33.636L327.553,33.113C327.666,32.824 327.746,32.523 327.793,32.216L328.565,32.058C328.596,31.738 328.596,31.416 328.565,31.096L327.793,30.937C327.746,30.63 327.666,30.33 327.553,30.041L328.142,29.518C328.009,29.225 327.848,28.946 327.661,28.684L326.913,28.933C326.719,28.691 326.499,28.47 326.257,28.276L326.506,27.529C326.244,27.342 325.965,27.181 325.672,27.048L325.149,27.637C324.86,27.524 324.559,27.443 324.253,27.397L324.094,26.625ZM323.613,30.582C324.162,30.582 324.608,31.028 324.608,31.577C324.608,32.126 324.162,32.572 323.613,32.572C323.064,32.572 322.618,32.126 322.618,31.577C322.618,31.028 323.064,30.582 323.613,30.582Z" style="fill:rgb(178,61,13);"/>
        </g>
    </g>
    <g transform="matrix(0.809169,0,0,0.809169,57.6749,4.50977)">
        <circle cx="304.538" cy="31.324" r="2.942" style="fill:rgb(243,243,234);"/>
    </g>
    <g transform="matrix(1.29791,0,0,1.29791,8.01251,8.32759)">
        <text x="48.349px" y="30.016px" style="font-family:'ScoutCond-Regular', 'ScoutCond';font-size:32px;fill:white;">GéoServices</text>
    </g>
    <defs>
        <linearGradient id="_Linear1" x1="0" y1="0" x2="1" y2="0" gradientUnits="userSpaceOnUse" gradientTransform="matrix(0.290883,78.6446,-75.2739,0.303908,153.325,-11.1705)"><stop offset="0" style="stop-color:rgb(4,35,72);stop-opacity:1"/><stop offset="1" style="stop-color:rgb(28,75,131);stop-opacity:1"/></linearGradient>
        <linearGradient id="_Linear2" x1="0" y1="0" x2="1" y2="0" gradientUnits="userSpaceOnUse" gradientTransform="matrix(2.40526e-15,-39.8009,39.2809,2.4371e-15,307.83,37.8889)"><stop offset="0" style="stop-color:rgb(212,100,19);stop-opacity:1"/><stop offset="1" style="stop-color:rgb(172,56,10);stop-opacity:1"/></linearGradient>
    </defs>
</svg>
